<svg width="365" height="192" viewBox="0 0 365 192" fill="none" xmlns="http://www.w3.org/2000/svg">
<rect width="365" height="192" fill="white"/>
<path d="M83.1992 86.8906V104H80.0938V90.5117L75.9805 91.8711V89.3633L82.8477 86.8906H83.1992ZM100.238 94.0039V96.875C100.238 98.1875 100.105 99.3086 99.8398 100.238C99.5742 101.168 99.1914 101.93 98.6914 102.523C98.1914 103.109 97.5938 103.543 96.8984 103.824C96.2031 104.098 95.4297 104.234 94.5781 104.234C93.8984 104.234 93.2656 104.148 92.6797 103.977C92.0938 103.797 91.5664 103.523 91.0977 103.156C90.6367 102.781 90.2383 102.305 89.9023 101.727C89.5742 101.148 89.3203 100.457 89.1406 99.6523C88.9688 98.8477 88.8828 97.9219 88.8828 96.875V94.0039C88.8828 92.6914 89.0156 91.5742 89.2812 90.6523C89.5547 89.7305 89.9414 88.9766 90.4414 88.3906C90.9414 87.8047 91.5391 87.3789 92.2344 87.1133C92.9297 86.8398 93.7031 86.7031 94.5547 86.7031C95.2422 86.7031 95.875 86.7891 96.4531 86.9609C97.0391 87.1328 97.5625 87.4023 98.0234 87.7695C98.4922 88.1289 98.8906 88.5977 99.2188 89.1758C99.5469 89.7461 99.7969 90.4336 99.9688 91.2383C100.148 92.0352 100.238 92.957 100.238 94.0039ZM97.1445 97.2969V93.5703C97.1445 92.9141 97.1055 92.3438 97.0273 91.8594C96.957 91.3672 96.8516 90.9492 96.7109 90.6055C96.5703 90.2617 96.3945 89.9844 96.1836 89.7734C95.9727 89.5547 95.7305 89.3945 95.457 89.293C95.1836 89.1914 94.8828 89.1406 94.5547 89.1406C94.1484 89.1406 93.7852 89.2227 93.4648 89.3867C93.1445 89.543 92.875 89.793 92.6562 90.1367C92.4375 90.4805 92.2695 90.9375 92.1523 91.5078C92.043 92.0703 91.9883 92.7578 91.9883 93.5703V97.2969C91.9883 97.9531 92.0234 98.5273 92.0938 99.0195C92.1719 99.5117 92.2812 99.9336 92.4219 100.285C92.5703 100.637 92.7461 100.926 92.9492 101.152C93.1602 101.371 93.4023 101.535 93.6758 101.645C93.9492 101.746 94.25 101.797 94.5781 101.797C94.9922 101.797 95.3555 101.715 95.668 101.551C95.9883 101.387 96.2578 101.129 96.4766 100.777C96.6953 100.418 96.8594 99.9531 96.9688 99.3828C97.0859 98.8047 97.1445 98.1094 97.1445 97.2969ZM113.949 94.0039V96.875C113.949 98.1875 113.816 99.3086 113.551 100.238C113.285 101.168 112.902 101.93 112.402 102.523C111.902 103.109 111.305 103.543 110.609 103.824C109.914 104.098 109.141 104.234 108.289 104.234C107.609 104.234 106.977 104.148 106.391 103.977C105.805 103.797 105.277 103.523 104.809 103.156C104.348 102.781 103.949 102.305 103.613 101.727C103.285 101.148 103.031 100.457 102.852 99.6523C102.68 98.8477 102.594 97.9219 102.594 96.875V94.0039C102.594 92.6914 102.727 91.5742 102.992 90.6523C103.266 89.7305 103.652 88.9766 104.152 88.3906C104.652 87.8047 105.25 87.3789 105.945 87.1133C106.641 86.8398 107.414 86.7031 108.266 86.7031C108.953 86.7031 109.586 86.7891 110.164 86.9609C110.75 87.1328 111.273 87.4023 111.734 87.7695C112.203 88.1289 112.602 88.5977 112.93 89.1758C113.258 89.7461 113.508 90.4336 113.68 91.2383C113.859 92.0352 113.949 92.957 113.949 94.0039ZM110.855 97.2969V93.5703C110.855 92.9141 110.816 92.3438 110.738 91.8594C110.668 91.3672 110.562 90.9492 110.422 90.6055C110.281 90.2617 110.105 89.9844 109.895 89.7734C109.684 89.5547 109.441 89.3945 109.168 89.293C108.895 89.1914 108.594 89.1406 108.266 89.1406C107.859 89.1406 107.496 89.2227 107.176 89.3867C106.855 89.543 106.586 89.793 106.367 90.1367C106.148 90.4805 105.98 90.9375 105.863 91.5078C105.754 92.0703 105.699 92.7578 105.699 93.5703V97.2969C105.699 97.9531 105.734 98.5273 105.805 99.0195C105.883 99.5117 105.992 99.9336 106.133 100.285C106.281 100.637 106.457 100.926 106.66 101.152C106.871 101.371 107.113 101.535 107.387 101.645C107.66 101.746 107.961 101.797 108.289 101.797C108.703 101.797 109.066 101.715 109.379 101.551C109.699 101.387 109.969 101.129 110.188 100.777C110.406 100.418 110.57 99.9531 110.68 99.3828C110.797 98.8047 110.855 98.1094 110.855 97.2969ZM116.281 91.1211V90.2188C116.281 89.5703 116.422 88.9805 116.703 88.4492C116.984 87.918 117.395 87.4922 117.934 87.1719C118.48 86.8516 119.145 86.6914 119.926 86.6914C120.723 86.6914 121.391 86.8516 121.93 87.1719C122.477 87.4922 122.887 87.918 123.16 88.4492C123.441 88.9805 123.582 89.5703 123.582 90.2188V91.1211C123.582 91.7539 123.441 92.3359 123.16 92.8672C122.887 93.3984 122.48 93.8242 121.941 94.1445C121.402 94.4648 120.738 94.625 119.949 94.625C119.16 94.625 118.492 94.4648 117.945 94.1445C117.398 93.8242 116.984 93.3984 116.703 92.8672C116.422 92.3359 116.281 91.7539 116.281 91.1211ZM118.379 90.2188V91.1211C118.379 91.418 118.434 91.6992 118.543 91.9648C118.66 92.2227 118.836 92.4336 119.07 92.5977C119.305 92.7617 119.598 92.8438 119.949 92.8438C120.301 92.8438 120.586 92.7617 120.805 92.5977C121.031 92.4336 121.199 92.2227 121.309 91.9648C121.426 91.6992 121.484 91.418 121.484 91.1211V90.2188C121.484 89.9141 121.426 89.6289 121.309 89.3633C121.199 89.0977 121.027 88.8828 120.793 88.7188C120.566 88.5547 120.277 88.4727 119.926 88.4727C119.582 88.4727 119.293 88.5547 119.059 88.7188C118.832 88.8828 118.66 89.0977 118.543 89.3633C118.434 89.6289 118.379 89.9141 118.379 90.2188ZM124.473 100.719V99.8164C124.473 99.1758 124.613 98.5898 124.895 98.0586C125.184 97.5273 125.602 97.1016 126.148 96.7812C126.695 96.4609 127.355 96.3008 128.129 96.3008C128.934 96.3008 129.605 96.4609 130.145 96.7812C130.684 97.1016 131.09 97.5273 131.363 98.0586C131.645 98.5898 131.785 99.1758 131.785 99.8164V100.719C131.785 101.359 131.645 101.945 131.363 102.477C131.09 103.008 130.684 103.434 130.145 103.754C129.613 104.074 128.949 104.234 128.152 104.234C127.371 104.234 126.703 104.074 126.148 103.754C125.602 103.434 125.184 103.008 124.895 102.477C124.613 101.945 124.473 101.359 124.473 100.719ZM126.582 99.8164V100.719C126.582 101.023 126.645 101.309 126.77 101.574C126.895 101.832 127.074 102.043 127.309 102.207C127.551 102.371 127.832 102.453 128.152 102.453C128.543 102.453 128.852 102.371 129.078 102.207C129.305 102.043 129.465 101.832 129.559 101.574C129.652 101.309 129.699 101.023 129.699 100.719V99.8164C129.699 99.5117 129.641 99.2305 129.523 98.9727C129.406 98.707 129.23 98.4922 128.996 98.3281C128.77 98.1641 128.48 98.082 128.129 98.082C127.785 98.082 127.496 98.1641 127.262 98.3281C127.035 98.4922 126.863 98.707 126.746 98.9727C126.637 99.2305 126.582 99.5117 126.582 99.8164ZM128.902 89.375L120.57 102.711L119.035 101.855L127.367 88.5195L128.902 89.375ZM145.555 104H141.875L141.898 101.469H145.555C146.547 101.469 147.379 101.25 148.051 100.812C148.723 100.367 149.23 99.7305 149.574 98.9023C149.918 98.0664 150.09 97.0664 150.09 95.9023V95.0234C150.09 94.125 149.992 93.332 149.797 92.6445C149.602 91.957 149.312 91.3789 148.93 90.9102C148.555 90.4414 148.09 90.0859 147.535 89.8438C146.98 89.6016 146.344 89.4805 145.625 89.4805H141.805V86.9375H145.625C146.766 86.9375 147.805 87.1289 148.742 87.5117C149.688 87.8945 150.504 88.4453 151.191 89.1641C151.887 89.875 152.418 90.7266 152.785 91.7188C153.16 92.7109 153.348 93.8203 153.348 95.0469V95.9023C153.348 97.1211 153.16 98.2305 152.785 99.2305C152.418 100.223 151.887 101.074 151.191 101.785C150.504 102.496 149.684 103.043 148.73 103.426C147.777 103.809 146.719 104 145.555 104ZM143.68 86.9375V104H140.457V86.9375H143.68ZM167.398 101.469V104H158.328V101.469H167.398ZM159.312 86.9375V104H156.09V86.9375H159.312ZM166.215 93.9805V96.4531H158.328V93.9805H166.215ZM167.363 86.9375V89.4805H158.328V86.9375H167.363ZM160.355 85.8594L162.652 82.2969H166.074L162.875 85.8594H160.355ZM174.734 104H171.055L171.078 101.469H174.734C175.727 101.469 176.559 101.25 177.23 100.812C177.902 100.367 178.41 99.7305 178.754 98.9023C179.098 98.0664 179.27 97.0664 179.27 95.9023V95.0234C179.27 94.125 179.172 93.332 178.977 92.6445C178.781 91.957 178.492 91.3789 178.109 90.9102C177.734 90.4414 177.27 90.0859 176.715 89.8438C176.16 89.6016 175.523 89.4805 174.805 89.4805H170.984V86.9375H174.805C175.945 86.9375 176.984 87.1289 177.922 87.5117C178.867 87.8945 179.684 88.4453 180.371 89.1641C181.066 89.875 181.598 90.7266 181.965 91.7188C182.34 92.7109 182.527 93.8203 182.527 95.0469V95.9023C182.527 97.1211 182.34 98.2305 181.965 99.2305C181.598 100.223 181.066 101.074 180.371 101.785C179.684 102.496 178.863 103.043 177.91 103.426C176.957 103.809 175.898 104 174.734 104ZM172.859 86.9375V104H169.637V86.9375H172.859ZM194.762 86.9375H197.984V98.2695C197.984 99.5742 197.703 100.672 197.141 101.562C196.578 102.445 195.812 103.113 194.844 103.566C193.875 104.012 192.773 104.234 191.539 104.234C190.289 104.234 189.176 104.012 188.199 103.566C187.223 103.113 186.457 102.445 185.902 101.562C185.348 100.672 185.07 99.5742 185.07 98.2695V86.9375H188.293V98.2695C188.293 99.0664 188.426 99.7188 188.691 100.227C188.957 100.727 189.332 101.098 189.816 101.34C190.301 101.582 190.875 101.703 191.539 101.703C192.211 101.703 192.785 101.582 193.262 101.34C193.746 101.098 194.117 100.727 194.375 100.227C194.633 99.7188 194.762 99.0664 194.762 98.2695V86.9375ZM211.027 98.3867H214.25C214.164 99.5273 213.848 100.539 213.301 101.422C212.754 102.297 211.992 102.984 211.016 103.484C210.039 103.984 208.855 104.234 207.465 104.234C206.395 104.234 205.43 104.047 204.57 103.672C203.719 103.289 202.988 102.746 202.379 102.043C201.777 101.332 201.316 100.48 200.996 99.4883C200.676 98.4883 200.516 97.3672 200.516 96.125V94.8242C200.516 93.582 200.68 92.4609 201.008 91.4609C201.336 90.4609 201.805 89.6094 202.414 88.9062C203.031 88.1953 203.77 87.6484 204.629 87.2656C205.496 86.8828 206.465 86.6914 207.535 86.6914C208.926 86.6914 210.102 86.9492 211.062 87.4648C212.023 87.9727 212.77 88.6719 213.301 89.5625C213.832 90.4531 214.152 91.4766 214.262 92.6328H211.039C210.977 91.9141 210.82 91.3047 210.57 90.8047C210.328 90.3047 209.961 89.9258 209.469 89.668C208.984 89.4023 208.34 89.2695 207.535 89.2695C206.91 89.2695 206.359 89.3867 205.883 89.6211C205.414 89.8555 205.023 90.207 204.711 90.6758C204.398 91.1367 204.164 91.7148 204.008 92.4102C203.852 93.0977 203.773 93.8945 203.773 94.8008V96.125C203.773 96.9922 203.844 97.7695 203.984 98.457C204.125 99.1445 204.344 99.7266 204.641 100.203C204.938 100.68 205.32 101.043 205.789 101.293C206.258 101.543 206.816 101.668 207.465 101.668C208.254 101.668 208.895 101.543 209.387 101.293C209.887 101.043 210.266 100.676 210.523 100.191C210.789 99.707 210.957 99.1055 211.027 98.3867ZM223.719 86.9375V104H220.508V86.9375H223.719ZM229.016 86.9375V89.4805H215.27V86.9375H229.016ZM234.594 86.9375V104H231.371V86.9375H234.594ZM244.613 96.3945H240.254L240.23 94.1211H243.969C244.609 94.1211 245.145 94.0312 245.574 93.8516C246.004 93.6719 246.328 93.4102 246.547 93.0664C246.773 92.7227 246.887 92.3047 246.887 91.8125C246.887 91.2656 246.781 90.8203 246.57 90.4766C246.367 90.1328 246.047 89.8828 245.609 89.7266C245.172 89.5625 244.617 89.4805 243.945 89.4805H241.297V104H238.074V86.9375H243.945C244.914 86.9375 245.777 87.0312 246.535 87.2188C247.301 87.3984 247.949 87.6797 248.48 88.0625C249.012 88.4453 249.414 88.9258 249.688 89.5039C249.969 90.082 250.109 90.7695 250.109 91.5664C250.109 92.2695 249.945 92.918 249.617 93.5117C249.297 94.0977 248.801 94.5742 248.129 94.9414C247.465 95.3086 246.621 95.5195 245.598 95.5742L244.613 96.3945ZM244.473 104H239.305L240.652 101.469H244.473C245.113 101.469 245.641 101.363 246.055 101.152C246.477 100.941 246.789 100.652 246.992 100.285C247.203 99.9102 247.309 99.4805 247.309 98.9961C247.309 98.4648 247.215 98.0039 247.027 97.6133C246.848 97.2227 246.559 96.9219 246.16 96.7109C245.77 96.5 245.254 96.3945 244.613 96.3945H241.262L241.285 94.1211H245.551L246.289 95C247.273 95.0078 248.074 95.2031 248.691 95.5859C249.316 95.9688 249.777 96.4609 250.074 97.0625C250.371 97.6641 250.52 98.3125 250.52 99.0078C250.52 100.102 250.281 101.02 249.805 101.762C249.336 102.504 248.648 103.062 247.742 103.438C246.844 103.812 245.754 104 244.473 104ZM264.137 101.469V104H255.559V101.469H264.137ZM256.531 86.9375V104H253.309V86.9375H256.531ZM277.602 101.469V104H268.531V101.469H277.602ZM269.516 86.9375V104H266.293V86.9375H269.516ZM276.418 93.9805V96.4531H268.531V93.9805H276.418ZM277.566 86.9375V89.4805H268.531V86.9375H277.566ZM289.109 86.9375L288.77 98.8789H286.156L285.816 86.9375H289.109ZM285.723 102.559C285.723 102.098 285.879 101.711 286.191 101.398C286.512 101.078 286.941 100.918 287.48 100.918C288.02 100.918 288.445 101.078 288.758 101.398C289.078 101.711 289.238 102.098 289.238 102.559C289.238 103.012 289.078 103.395 288.758 103.707C288.445 104.02 288.02 104.176 287.48 104.176C286.941 104.176 286.512 104.02 286.191 103.707C285.879 103.395 285.723 103.012 285.723 102.559Z" fill="#FF00AA"/>
</svg>
